<svg xmlns="http://www.w3.org/2000/svg" xmlns:xlink="http://www.w3.org/1999/xlink" x="0px" y="0px" width="24px" height="24px" viewBox="0 0 24 24"><g transform="translate(0.5, 0.5)">
<path data-cap="butt" fill="none" stroke="#343434" stroke-width="1" stroke-miterlimit="10" d="M12,17.3c-0.7,0.4-1.8,0.7-3,0.7 c-2.2,0-4-0.9-4-2c0-0.6,0.5-1.1,1.4-1.5" stroke-linejoin="miter" stroke-linecap="butt"/>
<path data-cap="butt" fill="none" stroke="#343434" stroke-width="1" stroke-miterlimit="10" d="M12,14.3c-0.7,0.4-1.8,0.7-3,0.7 c-2.2,0-4-0.9-4-2c0-0.6,0.5-1.1,1.3-1.5" stroke-linejoin="miter" stroke-linecap="butt"/>
<path data-cap="butt" fill="none" stroke="#343434" stroke-width="1" stroke-miterlimit="10" d="M12,11.3c-0.7,0.4-1.8,0.7-3,0.7 c-2.2,0-4-0.9-4-2c0-0.6,0.5-1.1,1.4-1.5" stroke-linejoin="miter" stroke-linecap="butt"/>
<path data-cap="butt" fill="none" stroke="#343434" stroke-width="1" stroke-miterlimit="10" d="M11.6,5.5C12.5,5.9,13,6.4,13,7 c0,1.1-1.8,2-4,2S5,8.1,5,7c0-0.6,0.5-1.1,1.4-1.5" stroke-linejoin="miter" stroke-linecap="butt"/>
<ellipse fill="none" stroke="#343434" stroke-width="1" stroke-linecap="square" stroke-miterlimit="10" cx="9" cy="4" rx="4" ry="2" stroke-linejoin="miter"/>
<path data-cap="butt" data-color="color-2" fill="none" stroke="#26c6da" stroke-width="1" stroke-miterlimit="10" d="M17.6,17.5 c0.8,0.4,1.4,0.9,1.4,1.5c0,1.1-1.8,2-4,2s-4-0.9-4-2c0-0.6,0.5-1.1,1.4-1.5" stroke-linejoin="miter" stroke-linecap="butt"/>
<path data-cap="butt" data-color="color-2" fill="none" stroke="#26c6da" stroke-width="1" stroke-miterlimit="10" d="M17.7,14.5 c0.8,0.4,1.3,0.9,1.3,1.5c0,1.1-1.8,2-4,2s-4-0.9-4-2c0-0.6,0.5-1.1,1.4-1.5" stroke-linejoin="miter" stroke-linecap="butt"/>
<path data-cap="butt" data-color="color-2" fill="none" stroke="#26c6da" stroke-width="1" stroke-miterlimit="10" d="M17.6,11.5 c0.8,0.4,1.4,0.9,1.4,1.5c0,1.1-1.8,2-4,2s-4-0.9-4-2c0-0.6,0.5-1.1,1.4-1.5" stroke-linejoin="miter" stroke-linecap="butt"/>
<ellipse data-color="color-2" fill="none" stroke="#26c6da" stroke-width="1" stroke-linecap="square" stroke-miterlimit="10" cx="15" cy="10" rx="4" ry="2" stroke-linejoin="miter"/>
</g></svg>
